{"accessors" : [{"bufferView" : 0, "byteOffset" : 0, "componentType" : 5125, "count" : 121950, "type" : "SCALAR", "max" : [121949], "min" : [0]}, {"bufferView" : 1, "byteOffset" : 0, "componentType" : 5126, "count" : 121950, "type" : "VEC3", "max" : [34.191917419433594, 12.601666450500488, 195.68692016601562], "min" : [-34.191917419433594, -33, -0.6177787780761719]}, {"bufferView" : 1, "byteOffset" : 12, "componentType" : 5126, "count" : 121950, "type" : "VEC3", "max" : [1.0000044107437134, 1.0000044107437134, 1.0000044107437134], "min" : [-1.0000044107437134, -1.0000044107437134, -1.0000044107437134]}], "asset" : {"generator" : "Aspose.3D 20.7.1", "version" : "2.0"}, "buffers" : [{"uri" : "buffer.bin", "byteLength" : 3414608}], "bufferViews" : [{"buffer" : 0, "byteOffset" : 0, "byteLength" : 487800, "target" : 34963}, {"buffer" : 0, "byteOffset" : 487804, "byteLength" : 2926800, "byteStride" : 24, "target" : 34962}], "meshes" : [{"primitives" : [{"attributes" : {"POSITION" : 1, "NORMAL" : 2}, "indices" : 0, "mode" : 4}]}], "nodes" : [{"mesh" : 0, "name" : ""}], "scene" : 0, "scenes" : [{"nodes" : [0]}]}